<svg xmlns="http://www.w3.org/2000/svg" xmlns:xlink="http://www.w3.org/1999/xlink" width="69px" height="69px">
	<path fill-rule="evenodd" fill="rgb(255, 255, 255)" d="M67.718,19.516 L36.642,51.746 L17.240,51.746 L17.240,32.344 L49.471,1.266 C50.311,0.427 51.412,0.008 52.513,0.008 C53.613,0.008 54.714,0.427 55.554,1.267 L67.719,13.433 C69.398,15.113 69.398,17.836 67.718,19.516 ZM52.458,10.366 L25.863,36.008 L25.863,43.123 L32.978,43.123 L58.620,16.529 L52.458,10.366 ZM21.551,8.630 L10.773,8.630 C9.582,8.630 8.617,9.595 8.617,10.786 L8.617,58.213 C8.617,59.404 9.582,60.370 10.773,60.370 L58.199,60.370 C59.390,60.370 60.355,59.404 60.355,58.213 L60.355,47.434 C60.355,45.054 62.286,43.123 64.667,43.123 C67.048,43.123 68.978,45.054 68.978,47.434 L68.978,64.680 C68.978,67.062 67.048,68.992 64.667,68.992 L4.305,68.992 C1.924,68.992 -0.006,67.062 -0.006,64.680 L-0.006,4.318 C-0.006,1.937 1.924,0.006 4.305,0.006 L21.551,0.006 C23.933,0.006 25.863,1.937 25.863,4.318 C25.863,6.700 23.933,8.630 21.551,8.630 Z"/>
</svg>
